<svg width="12" height="12" viewBox="0 0 12 12" fill="none" xmlns="http://www.w3.org/2000/svg">
<path fill-rule="evenodd" clip-rule="evenodd" d="M6 0C2.68555 0 0 2.68555 0 6C0 9.31445 2.68555 12 6 12C9.31445 12 12 9.31445 12 6C12 2.68555 9.31445 0 6 0ZM6.99976 3C6.99976 3.55228 6.552 4 5.99976 4C5.44751 4 4.99976 3.55228 4.99976 3C4.99976 2.44772 5.44751 2 5.99976 2C6.552 2 6.99976 2.44772 6.99976 3ZM5.99976 5C5.44751 5 4.99976 5.44772 4.99976 6V9C4.99976 9.55228 5.44751 10 5.99976 10C6.552 10 6.99976 9.55228 6.99976 9V6C6.99976 5.44772 6.552 5 5.99976 5Z" fill="#C1C1C1"/>
</svg>
