<svg width="18" height="18" viewBox="0 0 18 18" fill="none" xmlns="http://www.w3.org/2000/svg">
<path fill-rule="evenodd" clip-rule="evenodd" d="M9 16.5C13.1421 16.5 16.5 13.1421 16.5 9C16.5 4.85786 13.1421 1.5 9 1.5C4.85786 1.5 1.5 4.85786 1.5 9C1.5 13.1421 4.85786 16.5 9 16.5ZM9 18C13.9706 18 18 13.9706 18 9C18 4.02944 13.9706 0 9 0C4.02944 0 0 4.02944 0 9C0 13.9706 4.02944 18 9 18Z" fill="#C1C1C1"/>
<path fill-rule="evenodd" clip-rule="evenodd" d="M9 6C9.82843 6 10.5 5.32843 10.5 4.5C10.5 3.67157 9.82843 3 9 3C8.17157 3 7.5 3.67157 7.5 4.5C7.5 5.32843 8.17157 6 9 6ZM9 7.5C8.17157 7.5 7.5 8.17157 7.5 9V13.5C7.5 14.3284 8.17157 15 9 15C9.82843 15 10.5 14.3284 10.5 13.5V9C10.5 8.17157 9.82843 7.5 9 7.5Z" fill="#C1C1C1"/>
</svg>
