<svg width="30" height="34" viewBox="0 0 30 34" fill="none" xmlns="http://www.w3.org/2000/svg">
<path d="M-0.00012207 31.1296C7.54147 34.9568 24.5655 34.9568 29.9999 31.1296C29.9999 22.865 23.2901 17.9284 15.0276 17.9284C6.76513 17.9284 -0.00012207 22.8095 -0.00012207 31.1296Z" fill="#0B0B77"/>
<path d="M6.70966 10.6067C11.5895 11.4387 16.303 11.6051 22.5692 10.6622C24.4546 5.83656 21.7374 1.39919 18.4657 1.56559C17.9666 0.78905 18.3548 1.06639 17.5784 0.0125103C8.76141 -0.320293 5.43424 6.05843 6.70966 10.6067Z" fill="#1111B7"/>
<path d="M14.9167 23.8079C17.0793 23.8079 18.7984 22.0884 18.7984 19.9252V16.3753C18.7984 14.2676 17.0793 12.4926 14.9167 12.4926C12.8095 12.4926 11.035 14.2121 11.035 16.3753V19.9252C11.035 22.0884 12.754 23.8079 14.9167 23.8079Z" fill="#B8B8F4"/>
<path d="M14.6949 20.3135H15.1939C17.3012 20.3135 19.0756 18.594 19.0756 16.4308C19.0756 14.323 17.3566 12.5481 15.1939 12.5481H14.6949C12.5877 12.5481 10.8132 14.2676 10.8132 16.4308C10.8132 18.5385 12.5877 20.3135 14.6949 20.3135Z" fill="#8080DD"/>
<path d="M7.04239 13.491H22.3474C23.1792 13.491 23.8446 12.8254 23.8446 11.9934C23.8446 11.1614 23.1792 10.4958 22.3474 10.4958H7.04239C6.2106 10.4958 5.54517 11.1614 5.54517 11.9934C5.54517 12.8254 6.2106 13.491 7.04239 13.491Z" fill="#B8B8F4"/>
<path d="M22.68 9.99661C22.68 14.3785 19.1311 18.6495 14.7503 18.6495C10.3695 18.6495 6.76508 14.3785 6.76508 9.99661C6.76508 5.6147 10.3141 2.00934 14.6948 2.00934C19.0756 2.00934 22.68 5.55924 22.68 9.99661Z" fill="#B8B8F4"/>
<path d="M6.76515 10.4958L7.54149 11.5497V8.60989L18.1884 4.06159L22.1256 8.88723L22.0147 11.3278L22.6247 10.6622C22.6247 10.6622 24.621 1.6765 14.9722 1.62103C5.98881 1.62103 6.76515 10.4958 6.76515 10.4958Z" fill="#1111B7"/>
<path d="M17.4121 12.3817C17.9327 12.3817 18.3548 11.9595 18.3548 11.4387C18.3548 10.918 17.9327 10.4958 17.4121 10.4958C16.8914 10.4958 16.4694 10.918 16.4694 11.4387C16.4694 11.9595 16.8914 12.3817 17.4121 12.3817Z" fill="#02021E"/>
<path d="M12.0332 12.3817C12.5538 12.3817 12.9759 11.9595 12.9759 11.4387C12.9759 10.918 12.5538 10.4958 12.0332 10.4958C11.5125 10.4958 11.0905 10.918 11.0905 11.4387C11.0905 11.9595 11.5125 12.3817 12.0332 12.3817Z" fill="#02021E"/>
</svg>
